<?xml version="1.0" encoding="utf-8"?>
<!-- Generator: Adobe Illustrator 22.1.0, SVG Export Plug-In . SVG Version: 6.00 Build 0)  -->
<svg version="1.1" id="圖層_1" xmlns="http://www.w3.org/2000/svg" xmlns:xlink="http://www.w3.org/1999/xlink" x="0px" y="0px"
	 viewBox="0 0 1520 1520" style="enable-background:new 0 0 1520 1520;" xml:space="preserve">
<style type="text/css">
	.st0{fill:#FFFFFF;}
	.st1{fill:#780000;}
</style>
<g id="圖層_1_1_">
	<path class="st0" d="M760,0c419.7,0,760,340.3,760,760s-340.3,760-760,760S0,1179.7,0,760S340.3,0,760,0z"/>
	<path class="st1" d="M760,1459c-385.4,0-699-313.6-699-699S374.6,61,760,61s699,313.6,699,699S1145.4,1459,760,1459z M760,101
		c-363.4,0-659,295.6-659,659s295.6,659,659,659s659-295.6,659-659S1123.4,101,760,101z"/>
</g>
<path class="st1" d="M1016.9,409.2V299.8H500.7v109.5H399v297.3h101.6V1048c-33.3,15.3-57,54.1-57,99.6v72.4h611.1v-72.4
	c0-36.1-15-68.1-37.9-87.4V797.6h-51.1v243.4H847.7c1.4-2,2.7-3.9,4-6c51.3-7.7,68.2-38.6,73.1-52c7.5-20.5,4.2-42.3-8.5-55.7
	c-7.4-7.8-22.2-17.6-46.4-11.5l0-9.1H632.2l0.1,67.2c0,25.5,7.4,48,21.8,67.1H551.7V706.5h92.6V792c0,39.6,32.2,71.8,71.8,71.8h64.1
	c37.7,0,68.7-29.3,71.6-66.3h-51.6c-2.5,8.7-10.4,15.2-19.9,15.2h-64.1c-11.5,0-20.8-9.3-20.8-20.8v-85.4h423.1V409.2H1016.9z
	 M869.7,973.9l0-19.5c7.8-3.7,16.1-6.1,20.1-1.9c2.2,2.3,3.8,9.4,0.7,17.9c-1.9,5.2-7.5,15.5-22.8,22.5
	C869.1,985.5,869.7,978.9,869.7,973.9z M551.7,350.8h414.1v58.4H551.7V350.8z M833.3,943.1l0,30.7c0,8.9-3.9,35.8-21.6,53.5
	c-4,4-8,8.1-11.3,11.4c-0.5,0.5-1,1-1.5,1.5h-95.7c-0.5-0.5-1-1-1.5-1.5c-3.3-3.3-7.3-7.4-11.3-11.4c-14.6-14.6-21.6-32.1-21.6-53.6
	l0-30.7H833.3z M981.3,1096.9c13,8.8,22.4,28.5,22.4,50.7v21.3h-509v-21.3c0-22.3,9.3-41.9,22.4-50.7H981.3z M1067.4,655.5H450.1
	V460.3h617.4V655.5z M1055,720.4c-10.5,0-19.8,4.5-26.5,11.5h-237c-12.1,0-21.9,9.8-21.9,21.9c0,12.1,9.8,21.9,21.9,21.9h232.4
	c6.4,10.5,17.9,17.6,31.1,17.6c20.1,0,36.5-16.3,36.5-36.5C1091.4,736.7,1075.1,720.4,1055,720.4z M859.6,538h-91.2v47.4h91.2V538z
	 M650.7,604.5c22.7-22.7,25.3-57.9,7.9-83.5l-91.4,91.4C592.8,629.8,628,627.2,650.7,604.5z M1001.8,538h-91.2v47.4h91.2V538z
	 M641.1,503.5c-25.6-17.4-60.8-14.8-83.5,7.9c-22.7,22.7-25.3,57.9-7.9,83.5L641.1,503.5z"/>
</svg>
