<?xml version="1.0" encoding="utf-8"?>
<!-- Generator: Adobe Illustrator 22.1.0, SVG Export Plug-In . SVG Version: 6.00 Build 0)  -->
<svg version="1.1" id="圖層_1" xmlns="http://www.w3.org/2000/svg" xmlns:xlink="http://www.w3.org/1999/xlink" x="0px" y="0px"
	 viewBox="0 0 1520 1520" style="enable-background:new 0 0 1520 1520;" xml:space="preserve">
<style type="text/css">
	.st0{fill:#FFFFFF;}
	.st1{fill:#780000;}
</style>
<g id="圖層_1_1_">
	<path class="st0" d="M760,0c419.7,0,760,340.3,760,760s-340.3,760-760,760S0,1179.7,0,760S340.3,0,760,0z"/>
	<path class="st1" d="M760,1459c-385.4,0-699-313.6-699-699S374.6,61,760,61s699,313.6,699,699S1145.4,1459,760,1459z M760,101
		c-363.4,0-659,295.6-659,659s295.6,659,659,659s659-295.6,659-659S1123.4,101,760,101z"/>
</g>
<g id="圖層_7">
	<path class="st1" d="M1121.8,1179.1H403.9L239.9,546.6h88.7l50.2,193.5c19.3-11.9,42-20.6,67.6-21.1
		c72.6-6.4,145.9,97.6,152.8,104.7c-0.6,1.8-1.3,3.5-1.9,5.3c-5.1,6-9.7,12.3-13.9,19l-28.7,48.6l-30.9-47.3
		c-18-27.5-46-59.9-76.4-59.8c-17.9,0.3-35.5,11.4-49.6,24.3l72.3,279.1h584.6l69.7-278.4c-14.4-14.7-30.8-25.6-47.6-25
		c-32.4,0.9-63.6,43.1-72,57.8l-28.2,49.5l-31.5-47.4c-25.3-38.1-50.5-57.4-74.9-57.4h-0.2c-17.2,0.1-48.2,21.1-48.2,21.1
		s23.8-50.2,47.4-91.7c37.4-0.1,72.5,16.7,104.3,50.5c22.6-24.7,57-51.6,100.8-53.1c23.9-0.7,46.8,6.1,68.8,20.3l48.2-192.7h88.5
		L1121.8,1179.1z M960.3,673.3c-40.7,10.9-57.5-65.9-57.5-65.9c-5.5-18.4-17.5-19.7-26.8-3l-106,190c-9.3,16.7-29.2,23.1-44.3,14.3
		s-19.6-29.5-10.1-46l67-115.9c9.6-16.6,15.1-31.3,12.3-33s-12.9,10.5-22.5,27.1l-84.3,145.9c-9.6,16.6-29.6,22.9-44.8,14.1
		s-19.6-29.4-10-46l84.4-145.9c9.6-16.6,15.1-31.3,12.3-33s-12.8,10.5-22.5,27.1l-61.3,105.9c-9.6,16.6-29.6,22.9-44.8,14
		s-19.6-29.4-10-46l61.2-105.9c9.6-16.6,15.1-31.4,12.3-33s-12.9,10.5-22.5,27.1l-32.3,55.8c-9.6,16.6-29.7,22.9-44.8,14.1
		s-19.1-29.1-8.9-45.3l185.1-293.7c10.3-16.2,31.6-21.5,48.3-11.9l147,85.7c16.5,9.6,27.3,29.4,24,44.2s-2.8,41.9,1.1,60.7
		c0,0,7.5,36.3,16.8,81.2S1001,662.5,960.3,673.3z"/>
</g>
</svg>
