<?xml version="1.0" encoding="utf-8"?>
<!-- Generator: Adobe Illustrator 22.1.0, SVG Export Plug-In . SVG Version: 6.00 Build 0)  -->
<svg version="1.1" id="圖層_1" xmlns="http://www.w3.org/2000/svg" xmlns:xlink="http://www.w3.org/1999/xlink" x="0px" y="0px"
	 viewBox="0 0 1520 1520" style="enable-background:new 0 0 1520 1520;" xml:space="preserve">
<style type="text/css">
	.st0{fill:#FFFFFF;}
	.st1{fill:#780000;}
</style>
<g id="圖層_1_1_">
	<path class="st0" d="M760,0c419.7,0,760,340.3,760,760s-340.3,760-760,760S0,1179.7,0,760S340.3,0,760,0z"/>
	<path class="st1" d="M760,1459c-385.4,0-699-313.6-699-699S374.6,61,760,61s699,313.6,699,699S1145.4,1459,760,1459z M760,101
		c-363.4,0-659,295.6-659,659s295.6,659,659,659s659-295.6,659-659S1123.4,101,760,101z"/>
</g>
<path class="st1" d="M1010.8,532.9C1122.5,610.4,1189,731,1189,856.7h48.1c0-144-76.8-281.5-205.5-367.8l-6.1-4.1H905.2v-76
	l-411.7-51.5l39.8,47c31.1,36.7,34.2,111.7,32.2,151.8c-128,54.6-212.2,174.3-212.2,305.9c0,132.3,83.2,247,203.8,302h322.8
	c120.6-55.1,203.8-169.7,203.8-302c0-118.9-69.1-229.2-178.5-289.5v-39.7H1010.8z M857.1,451.3v103.2l-243.4-3.8
	c0.4-13.5,0.4-31.3-1.2-50.7h137.1v-20.6H610.3c-2.7-20.1-7.2-41.1-14.7-60.7L857.1,451.3z M1026,791.7H411
	c23.6-84.8,89-157.1,178.4-193.4l268,4.2C942.1,640.1,1003.3,710.4,1026,791.7z"/>
</svg>
