<?xml version="1.0" encoding="utf-8"?>
<!-- Generator: Adobe Illustrator 22.1.0, SVG Export Plug-In . SVG Version: 6.00 Build 0)  -->
<svg version="1.1" id="圖層_1" xmlns="http://www.w3.org/2000/svg" xmlns:xlink="http://www.w3.org/1999/xlink" x="0px" y="0px"
	 viewBox="0 0 1000 1000" style="enable-background:new 0 0 1000 1000;" xml:space="preserve">
<style type="text/css">
	.st0{fill:#36231C;}
	.st1{fill:#FFFFFF;}
</style>
<path class="st0" d="M500,0c276.1,0,500,223.9,500,500s-223.9,500-500,500S0,776.1,0,500S223.9,0,500,0z"/>
<path class="st1" d="M699.1,537.7c-34.6,42.3-55.5,94.1-60.1,148.5h-73.2V568.5L612.3,452c4.6-11.5-1-24.6-12.5-29.2
	c-4.4-1.8-9.2-2.1-13.8-1l-90.9,22.7l-90.8-22.8c-12.1-3-24.3,4.3-27.3,16.4c-1.1,4.6-0.8,9.4,1,13.8l46.5,116.5v117.7h-73.3
	c-4.6-54.4-25.6-106.2-60.2-148.5c-38.2-47-59.1-105.8-59.2-166.4c0-145.3,118.1-263.5,263.2-263.5S758.4,226,758.4,371.3
	C758.4,432,737.4,490.7,699.1,537.7z M469.5,686.2V564.1c0-2.9-0.6-5.7-1.6-8.4l-31.8-79.6l53.6,13.4c3.6,0.9,7.3,0.9,10.9,0
	l53.7-13.4l-31.8,79.6c-1.1,2.7-1.6,5.5-1.6,8.4v122.1L469.5,686.2L469.5,686.2z M589.9,781H400.4c-26.8-0.9-48.1-22.9-48.1-49.8
	H638C638,758.1,616.7,780.1,589.9,781z M495.1,875.8c-34.8,0-66.8-19.1-83.3-49.8h166.7C562,856.7,530,875.8,495.1,875.8z"/>
</svg>
