<?xml version="1.0" encoding="utf-8"?>
<!-- Generator: Adobe Illustrator 22.1.0, SVG Export Plug-In . SVG Version: 6.00 Build 0)  -->
<svg version="1.1" id="圖層_1" xmlns="http://www.w3.org/2000/svg" xmlns:xlink="http://www.w3.org/1999/xlink" x="0px" y="0px"
	 viewBox="0 0 1520 1520" style="enable-background:new 0 0 1520 1520;" xml:space="preserve">
<style type="text/css">
	.st0{fill:#FFFFFF;}
	.st1{fill:#780000;}
</style>
<g id="圖層_1_1_">
	<path class="st0" d="M760,0c419.7,0,760,340.3,760,760s-340.3,760-760,760S0,1179.7,0,760S340.3,0,760,0z"/>
	<path class="st1" d="M760,1459c-385.4,0-699-313.6-699-699S374.6,61,760,61s699,313.6,699,699S1145.4,1459,760,1459z M760,101
		c-363.4,0-659,295.6-659,659s295.6,659,659,659s659-295.6,659-659S1123.4,101,760,101z"/>
</g>
<g id="圖層_3">
	<path class="st1" d="M1256.9,767.8c-30-30-38.6-77.1-17.1-115.6c12.9-25.7,17.1-60,4.3-90s-38.5-47.1-68.5-55.7
		c-42.8-8.5-72.8-47.1-77.1-89.9c-4.3-30-21.4-59.9-47.1-77.1s-60-21.4-85.7-8.6c-42.8,12.9-85.7,0-111.4-34.2
		c-17.1-25.7-47.1-38.5-81.4-38.5c-30,0-60,12.8-77.1,38.5c-30,34.2-72.8,47.1-115.6,34.2c-30-12.8-60-8.6-85.7,8.6
		s-42.8,42.8-47.1,77.1c-4.3,42.9-34.3,81.4-77.1,90c-30,4.3-55.7,25.7-68.5,55.7s-12.8,60,4.3,85.7c21.4,38.6,12.9,85.7-17.1,115.7
		c-21.4,21.4-30,51.4-25.7,85.6s21.4,55.7,51.4,72.9c38.5,21.4,60,64.2,47.1,107c-4.3,30,0,60,21.4,85.7
		c17.1,25.7,47.1,38.5,81.4,34.3c42.8-4.3,85.7,21.4,98.5,64.3c12.8,30,34.3,51.4,64.3,59.9s60,4.3,85.7-17.1
		c34.3-25.7,81.4-25.7,119.9,0c25.7,17.1,55.7,25.7,85.7,17.1s55.7-30,64.3-59.9c17.1-38.5,55.7-68.6,98.5-64.3
		c30,0,60-8.6,81.4-34.3c21.4-21.4,30-55.7,21.4-85.7c-8.6-42.8,12.9-85.7,47.1-107c25.7-17.1,47.1-42.8,51.4-72.9
		S1278.3,789.2,1256.9,767.8z M721.4,999.2L528.7,810.7l81.4-81.4l111.4,107.1l239.9-248.4l81.4,81.4L721.4,999.2z"/>
</g>
</svg>
