<?xml version="1.0" encoding="utf-8"?>
<!-- Generator: Adobe Illustrator 22.1.0, SVG Export Plug-In . SVG Version: 6.00 Build 0)  -->
<svg version="1.1" id="圖層_1" xmlns="http://www.w3.org/2000/svg" xmlns:xlink="http://www.w3.org/1999/xlink" x="0px" y="0px"
	 viewBox="0 0 72 72" style="enable-background:new 0 0 72 72;" xml:space="preserve">
<style type="text/css">
	.st0{fill:#36231C;}
	.st1{fill:#FFFFFF;}
</style>
<path class="st0" d="M36,0c19.9,0,36,16.1,36,36S55.9,72,36,72S0,55.9,0,36S16.1,0,36,0z"/>
<g>
	<g>
		<path class="st1" d="M29.8,19.6l1.8,3.1c-6.6,5-9.8,8.6-9.8,11c0,1.4,1.1,2.4,3.4,3.1c3.9,1.1,5.9,3.6,5.9,7.5
			c0.1,2.3-0.8,4.5-2.5,6c-1.8,1.4-3.9,2.2-6.2,2.2c-2.1-0.1-4.2-0.9-5.9-2.2c-2.1-2-3.1-4.7-3.1-8.2c0-4.1,1.2-8,3.4-11.4
			C19.3,26.6,23.6,22.9,29.8,19.6z M56.8,19.6l1.9,3.1c-6.7,5-10.1,8.6-10.1,11c0,1.4,1.2,2.4,3.7,3.1c3.9,1.1,5.9,3.6,5.9,7.5
			c0.1,2.3-0.9,4.5-2.6,6c-1.8,1.4-4,2.2-6.3,2.2c-2.1-0.1-4.1-0.9-5.7-2.2c-2-2-2.9-4.7-2.9-8.2c0-4,1-8,3.1-11.4
			C46.2,26.6,50.6,22.9,56.8,19.6L56.8,19.6z"/>
	</g>
</g>
</svg>
