<?xml version="1.0" encoding="utf-8"?>
<!-- Generator: Adobe Illustrator 22.1.0, SVG Export Plug-In . SVG Version: 6.00 Build 0)  -->
<svg version="1.1" id="圖層_1" xmlns="http://www.w3.org/2000/svg" xmlns:xlink="http://www.w3.org/1999/xlink" x="0px" y="0px"
	 viewBox="0 0 1520 1520" style="enable-background:new 0 0 1520 1520;" xml:space="preserve">
<style type="text/css">
	.st0{fill:#FFFFFF;}
	.st1{fill:#780000;}
</style>
<g id="圖層_1_1_">
	<path class="st0" d="M760,0c419.7,0,760,340.3,760,760s-340.3,760-760,760S0,1179.7,0,760S340.3,0,760,0z"/>
	<path class="st1" d="M760,1459c-385.4,0-699-313.6-699-699S374.6,61,760,61s699,313.6,699,699S1145.4,1459,760,1459z M760,101
		c-363.4,0-659,295.6-659,659s295.6,659,659,659s659-295.6,659-659S1123.4,101,760,101z"/>
</g>
<path class="st1" d="M460.2,838c-70.6,45.1-75.5,163.7-10.9,265.1c64.6,101.3,174.3,147,244.9,101.9c70.6-45,75.5-163.7,10.9-265
	C640.5,838.6,530.8,793,460.2,838z M552,1010.7c3-100-79.6-125.7-79.6-125.7s134.6,5.1,129.8,119.2c-5.3,127,73.1,165.8,73.1,165.8
	C637,1162.1,548.8,1115.7,552,1010.7z M1113.9,706c-73.5-40.2-179.8,12.6-237.6,118c-57.7,105.4-45,223.5,28.5,263.7
	c73.5,40.2,179.8-12.6,237.6-118C1200.1,864.3,1187.3,746.3,1113.9,706z M1036.5,910.5c-113.9,56.5-110.2,143.9-110.2,143.9
	c-11.4-37.5-13.2-137.1,80.3-184.8c89.2-45.5,71.9-130.2,71.9-130.2S1138.8,859.8,1036.5,910.5z M725.5,297.7
	c-83.8,0-151.7,97.4-151.7,217.6c0,120.2,67.9,217.6,151.7,217.6c83.8,0,151.7-97.4,151.7-217.6
	C877.2,395.1,809.2,297.7,725.5,297.7z M755.8,514.2c-72.8,104.3-27.5,179.1-27.5,179.1c-28.1-27.4-77.4-113.9-18.3-200.7
	c56.4-82.7,0.5-148.8,0.5-148.8S821.2,420.5,755.8,514.2z"/>
</svg>
