<?xml version="1.0" encoding="utf-8"?>
<!-- Generator: Adobe Illustrator 22.1.0, SVG Export Plug-In . SVG Version: 6.00 Build 0)  -->
<svg version="1.1" id="圖層_1" xmlns="http://www.w3.org/2000/svg" xmlns:xlink="http://www.w3.org/1999/xlink" x="0px" y="0px"
	 viewBox="0 0 1000 1000" style="enable-background:new 0 0 1000 1000;" xml:space="preserve">
<style type="text/css">
	.st0{fill:#36231C;}
	.st1{enable-background:new    ;}
	.st2{fill:#FFFFFF;}
</style>
<path class="st0" d="M500,0c276.1,0,500,223.9,500,500s-223.9,500-500,500S0,776.1,0,500S223.9,0,500,0z"/>
<text transform="matrix(1 0 0 1 -741.9541 131.4767)" class="st2" style="font-family:'AdobeMingStd-Light-B5pc-H'; font-size:11.2479px;"> </text>
<g class="st1">
	<path class="st2" d="M245.8,285.3h-67v-39.6h182.4v39.6h-67.7v198.8h-47.7V285.3z"/>
	<path class="st2" d="M377.9,364c0-77.7,43.5-122.8,106.7-122.8S591.2,286.6,591.2,364c0,77.3-43.5,124.7-106.7,124.7
		S377.9,441.3,377.9,364z M542.6,364c0-51.2-22.6-81.8-58-81.8s-58,30.6-58,81.8c0,50.9,22.6,83.5,58,83.5S542.6,414.9,542.6,364z"
		/>
	<path class="st2" d="M637.9,245.7h78.3c52.8,0,93.4,18.4,93.4,74.8c0,54.5-40.9,78.9-92.2,78.9h-31.9v84.7h-47.7V245.7H637.9z
		 M714.3,361.7c32.9,0,48.7-13.9,48.7-41.2c0-27.7-17.4-37.1-50.3-37.1h-27.1v78.3H714.3z"/>
</g>
<text transform="matrix(1 0 0 1 -939.1929 337.2472)" class="st2" style="font-family:'NotoSansCJKtc-Bold-B5pc-H'; font-size:357.316px;">10</text>
<g>
	<path class="st2" d="M446.3,784.4c9.6,10.4,26.1,18.6,41.8,18.6c29.7,0,54.3-22.5,56.5-89C531,731.9,508.5,743,490.3,743
		c-43.9,0-75.8-27.2-75.8-83.3c0-54.3,37.9-88.3,83.3-88.3c50,0,95,39.3,95,131.1c0,100-49,143.3-101.5,143.3
		c-32.9,0-56.8-13.9-72.5-30L446.3,784.4z M543.9,677.2c-4.6-48.2-22.9-66.1-45.4-66.1c-19.7,0-35.7,16.1-35.7,48.6
		c0,31.1,14.6,45.7,37.5,45.7C514.6,705.5,531,697.6,543.9,677.2z"/>
</g>
<text transform="matrix(1 0 0 1 -823.9077 1058.5314)" class="st2" style="font-family:'NotoSansCJKtc-Bold-B5pc-H'; font-size:357.316px;">8</text>
<text transform="matrix(1 0 0 1 -823.9077 1418.4991)" class="st2" style="font-family:'NotoSansCJKtc-Bold-B5pc-H'; font-size:357.316px;">7</text>
<text transform="matrix(1 0 0 1 -823.9077 1764.4064)" class="st2" style="font-family:'NotoSansCJKtc-Bold-B5pc-H'; font-size:357.316px;">6</text>
<text transform="matrix(1 0 0 1 -823.9077 2090.6272)" class="st2" style="font-family:'NotoSansCJKtc-Bold-B5pc-H'; font-size:357.316px;">5</text>
<text transform="matrix(1 0 0 1 -1206.373 1081.0294)" class="st2" style="font-family:'NotoSansCJKtc-Bold-B5pc-H'; font-size:357.316px;">4</text>
<text transform="matrix(1 0 0 1 -1206.373 1438.1847)" class="st2" style="font-family:'NotoSansCJKtc-Bold-B5pc-H'; font-size:357.316px;">3</text>
<text transform="matrix(1 0 0 1 -1189.5 1784.0919)" class="st2" style="font-family:'NotoSansCJKtc-Bold-B5pc-H'; font-size:357.316px;">2</text>
<text transform="matrix(1 0 0 1 -1189.5 2107.5012)" class="st2" style="font-family:'NotoSansCJKtc-Bold-B5pc-H'; font-size:357.316px;">1</text>
</svg>
