<?xml version="1.0" encoding="utf-8"?>
<!-- Generator: Adobe Illustrator 22.1.0, SVG Export Plug-In . SVG Version: 6.00 Build 0)  -->
<svg version="1.1" id="圖層_1" xmlns="http://www.w3.org/2000/svg" xmlns:xlink="http://www.w3.org/1999/xlink" x="0px" y="0px"
	 viewBox="0 0 1000 1000" style="enable-background:new 0 0 1000 1000;" xml:space="preserve">
<style type="text/css">
	.st0{fill:#36231C;}
	.st1{enable-background:new    ;}
	.st2{fill:#FFFFFF;}
</style>
<path class="st0" d="M500,0c276.1,0,500,223.9,500,500s-223.9,500-500,500S0,776.1,0,500S223.9,0,500,0z"/>
<text transform="matrix(1 0 0 1 -741.9541 131.4767)" class="st2" style="font-family:'AdobeMingStd-Light-B5pc-H'; font-size:11.2479px;"> </text>
<g class="st1">
	<path class="st2" d="M245.8,285.3h-67v-39.6h182.4v39.6h-67.7v198.8h-47.7V285.3z"/>
	<path class="st2" d="M377.9,364c0-77.7,43.5-122.8,106.7-122.8S591.2,286.6,591.2,364c0,77.3-43.5,124.7-106.7,124.7
		S377.9,441.3,377.9,364z M542.6,364c0-51.2-22.6-81.8-58-81.8s-58,30.6-58,81.8c0,50.9,22.6,83.5,58,83.5S542.6,414.9,542.6,364z"
		/>
	<path class="st2" d="M637.9,245.7h78.3c52.8,0,93.4,18.4,93.4,74.8c0,54.5-40.9,78.9-92.2,78.9h-31.9v84.7h-47.7V245.7H637.9z
		 M714.3,361.7c32.9,0,48.7-13.9,48.7-41.2c0-27.7-17.4-37.1-50.3-37.1h-27.1v78.3H714.3z"/>
</g>
<text transform="matrix(1 0 0 1 -939.1929 337.2472)" class="st2" style="font-family:'NotoSansCJKtc-Bold-B5pc-H'; font-size:357.316px;">10</text>
<g>
	<path class="st2" d="M-792.1,628.4c9.6,10.4,26.1,18.6,41.8,18.6c29.7,0,54.3-22.5,56.5-89c-13.6,17.9-36.1,28.9-54.3,28.9
		c-43.9,0-75.8-27.2-75.8-83.3c0-54.3,37.9-88.3,83.3-88.3c50,0,95,39.3,95,131.1c0,100-49,143.3-101.5,143.3
		c-32.9,0-56.8-13.9-72.5-30L-792.1,628.4z M-694.6,521.2c-4.6-48.2-22.9-66.1-45.4-66.1c-19.7,0-35.7,16.1-35.7,48.6
		c0,31.1,14.6,45.7,37.5,45.7C-723.9,549.4-707.4,541.6-694.6,521.2z"/>
</g>
<g>
	<path class="st2" d="M-830.6,972.5c0-33.9,20.7-55.7,45.4-69v-1.8c-20.4-14.7-35-34.7-35-62.9c0-42.5,33.6-69.7,79.7-69.7
		c46.8,0,76.8,28.2,76.8,70.4c0,26.1-16.4,47.9-33.9,60.4v1.8c24.3,13.2,44.3,34.7,44.3,70.7c0,40-35.4,70.7-89,70.7
		C-792.7,1043.3-830.6,1014-830.6,972.5z M-702.3,970.7c0-27.5-24.3-38.9-58.6-52.9c-14.3,11.4-24.3,29.3-24.3,49
		c0,23.9,19.7,39.3,44.3,39.3C-718.7,1006.1-702.3,993.6-702.3,970.7z M-706.6,842.8c0-21.4-12.9-36.8-35-36.8
		c-17.9,0-32.2,11.8-32.2,32.9c0,25,20.4,37.2,48.2,48.2C-712.7,873.6-706.6,858.6-706.6,842.8z"/>
</g>
<g>
	<path class="st2" d="M537.1,643h-119V599h175.8v31.8c-61.5,75-69.7,129-74,232.6h-53.2C471.3,771.6,486.7,713,537.1,643z"/>
</g>
<text transform="matrix(1 0 0 1 -823.9077 1764.4064)" class="st2" style="font-family:'NotoSansCJKtc-Bold-B5pc-H'; font-size:357.316px;">6</text>
<text transform="matrix(1 0 0 1 -823.9077 2090.6272)" class="st2" style="font-family:'NotoSansCJKtc-Bold-B5pc-H'; font-size:357.316px;">5</text>
<text transform="matrix(1 0 0 1 -1206.373 1081.0294)" class="st2" style="font-family:'NotoSansCJKtc-Bold-B5pc-H'; font-size:357.316px;">4</text>
<text transform="matrix(1 0 0 1 -1206.373 1438.1847)" class="st2" style="font-family:'NotoSansCJKtc-Bold-B5pc-H'; font-size:357.316px;">3</text>
<text transform="matrix(1 0 0 1 -1189.5 1784.0919)" class="st2" style="font-family:'NotoSansCJKtc-Bold-B5pc-H'; font-size:357.316px;">2</text>
<text transform="matrix(1 0 0 1 -1189.5 2107.5012)" class="st2" style="font-family:'NotoSansCJKtc-Bold-B5pc-H'; font-size:357.316px;">1</text>
</svg>
